Coordinates
version=1
nRows=12
nColumns=33
inDegrees=yes

Units are S.I. units (second, meters, Newtons, ...)
Angles are in degrees.

endheader
time	ground_thorax_rot_x	ground_thorax_rot_y	ground_thorax_rot_z	ground_thorax_tx	ground_thorax_ty	ground_thorax_tz	clav_prot_r	clav_elev_r	scapula_abduction_r	scapula_elevation_r	scapula_upward_rot_r	scapula_winging_r	shoulder_elv_r	plane_of_elev_r	axial_rot_r	elbow_flexion_r	pro_sup_r	wrist_flex_r	wrist_dev_r	clav_prot_l	clav_elev_l	scapula_abduction_l	scapula_elevation_l	scapula_upward_rot_l	scapula_winging_l	shoulder_elv_l	plane_of_elev_l	axial_rot_l	elbow_flexion_l	pro_sup_l	wrist_flex_l	wrist_dev_l
      5.46000000	     26.76240855	     31.95575056	     42.45695369	      8.36305703	    763.95169268	    -30.68915160	     12.29337894	     35.50151339	     25.29911369	     45.00000000	    -45.00000000	  -2958.90024842	  -4968.96837324	     22.40843467	    179.99999979	   1085.55083402	    184.07533961	     12.52137018	     13.96080166	    -13.43617339	    -45.00000000	    -33.73161780	     45.00000000	    -45.00000000	   -980.05970605	  -1174.18548385	    136.97904361	   -138.02226597	   1788.64949939	     39.29588267	     12.69023626	    -14.02612937
      5.47000000	     26.71015904	     31.99277064	     42.28030641	      5.60481065	    764.36554686	    -30.82757675	     12.40355021	     35.56353031	     25.05874642	     45.00000000	    -45.00000000	  -2958.93515203	  -4968.90345736	     22.32882194	    179.99999979	   1085.62990261	    184.43199640	     12.61418597	     13.72197319	    -13.39223942	    -45.00000000	    -34.05857351	     45.00000000	    -45.00000000	   -980.19304932	  -1174.23099905	    137.41121384	   -138.17139456	   1788.93937876	     39.38939162	     12.63111720	    -13.98247048
      5.48000000	     26.73284638	     31.87789141	     42.06760197	      2.78204576	    764.81609684	    -30.99131803	     12.32661140	     35.40970114	     25.16262473	     45.00000000	    -45.00000000	  -2959.07505716	  -4968.92794662	     22.21697539	    179.99999979	   1085.71558957	    184.83983582	     12.61680305	     13.97628278	    -13.18536516	    -45.00000000	    -34.06332201	     45.00000000	    -45.00000000	   -979.82752833	  -1174.02343450	    137.23586501	   -138.24069233	   1788.95861751	     39.46595101	     12.53834068	    -14.19494753
      5.49000000	     26.88670059	     31.71823718	     41.73169185	     -0.10102080	    765.30687742	    -31.17722738	     12.31283349	     35.46401563	     25.04154643	     45.00000000	    -45.00000000	  -2959.18984967	  -4968.84011434	     22.30934527	    179.99999979	   1085.66659266	    185.18086883	     12.71678783	     13.98372326	    -13.05033297	    -45.00000000	    -34.19292256	     45.00000000	    -45.00000000	   -979.73904376	  -1173.92801036	    137.37363675	   -138.38099206	   1789.00129242	     39.55221637	     12.57035195	    -14.18243560
      5.50000000	     26.99502295	     31.58895269	     41.40180336	     -3.03856347	    765.84278206	    -31.38164502	     12.31041049	     35.38002827	     24.99391192	     45.00000000	    -45.00000000	  -2959.29786539	  -4968.78396072	     22.27733534	    179.99999979	   1085.71709979	    185.50485860	     12.73939569	     14.07527979	    -12.94291490	    -45.00000000	    -34.27979917	     45.00000000	    -45.00000000	   -979.56372437	  -1173.81564669	    137.31603997	   -138.45040928	   1788.99679275	     39.61927629	     12.49369413	    -14.30503972
      5.51000000	     27.11036200	     31.42772372	     41.06855911	     -6.01600335	    766.42724444	    -31.60045591	     12.29455976	     35.37963859	     24.91960262	     45.00000000	    -45.00000000	  -2959.43600955	  -4968.69813849	     22.33248560	    179.99999979	   1085.73361614	    185.78628823	     12.79492490	     14.13744175	    -12.80384259	    -45.00000000	    -34.39482121	     45.00000000	    -45.00000000	   -979.43165016	  -1173.70885375	    137.33145393	   -138.60281640	   1789.04001891	     39.68459935	     12.49629281	    -14.32515704
      5.52000000	     27.20303900	     31.32823096	     40.77132735	     -9.02942998	    767.06603489	    -31.83038260	     12.31242935	     35.30228957	     24.79974754	     45.00000000	    -45.00000000	  -2959.55310205	  -4968.64324586	     22.30402390	    179.99999979	   1085.71795632	    186.05055605	     12.84257352	     14.18579659	    -12.66816670	    -45.00000000	    -34.51099187	     45.00000000	    -45.00000000	   -979.30667304	  -1173.56073175	    137.36445201	   -138.67751214	   1789.06769369	     39.72850982	     12.43446247	    -14.40050552
      5.53000000	     27.32589591	     31.15514198	     40.46613417	    -12.07039702	    767.76307704	    -32.06860364	     12.28737098	     35.29148100	     24.77687383	     45.00000000	    -45.00000000	  -2959.69755173	  -4968.57943618	     22.31580580	    179.99999979	   1085.75444628	    186.28609136	     12.88073503	     14.25227067	    -12.54304726	    -45.00000000	    -34.62532502	     45.00000000	    -45.00000000	   -979.13984689	  -1173.46852603	    137.37211645	   -138.78451452	   1789.08641453	     39.76718991	     12.42650283	    -14.43666565
      5.54000000	     27.47411839	     31.01330981	     40.08641468	    -15.13371265	    768.52244784	    -32.31314087	     12.27646443	     35.24947096	     24.66711668	     45.00000000	    -45.00000000	  -2959.83950387	  -4968.50820292	     22.35501547	    179.99999979	   1085.77151973	    186.50565456	     12.91117304	     14.32505201	    -12.39978339	    -45.00000000	    -34.73609597	     45.00000000	    -45.00000000	   -978.99604319	  -1173.32328334	    137.32848878	   -138.83601520	   1789.11035293	     39.78990461	     12.40962366	    -14.50104377
      5.55000000	     27.62087199	     30.82264260	     39.75978753	    -18.21025136	    769.34595487	    -32.56275197	     12.26425546	     35.22212993	     24.63382514	     45.00000000	    -45.00000000	  -2959.99623941	  -4968.41282365	     22.39642252	    179.99999979	   1085.80469181	    186.70251106	     12.93966597	     14.38648050	    -12.28180338	    -45.00000000	    -34.83452111	     45.00000000	    -45.00000000	   -978.82614448	  -1173.21982927	    137.31045917	   -138.92314580	   1789.13140733	     39.80469636	     12.40409860	    -14.54212084
      5.56000000	     27.73479004	     30.65954033	     39.46579587	    -21.29468856	    770.23531586	    -32.81708372	     12.25621774	     35.18314057	     24.53162867	     45.00000000	    -45.00000000	  -2960.12688403	  -4968.32735735	     22.40464855	    179.99999979	   1085.78351487	    186.88834979	     12.98502414	     14.42547940	    -12.11565137	    -45.00000000	    -34.96807878	     45.00000000	    -45.00000000	   -978.68273484	  -1173.10050179	    137.33151571	   -138.98849522	   1789.17482106	     39.80682859	     12.39441143	    -14.59766613
      5.57000000	     27.88346814	     30.47495543	     39.13235245	    -24.37507371	    771.18908531	    -33.07579964	     12.24133542	     35.15013248	     24.48525229	     45.00000000	    -45.00000000	  -2960.28497915	  -4968.26719241	     22.44980477	    179.99999979	   1085.85989463	    187.06134940	     12.99813908	     14.48833790	    -11.98866817	    -45.00000000	    -35.07539780	     45.00000000	    -45.00000000	   -978.53427403	  -1172.98647686	    137.30120276	   -139.01416950	   1789.16307854	     39.81032465	     12.40390324	    -14.63635095
